<svg viewBox="0 0 128 128" fill="none" xmlns="http://www.w3.org/2000/svg">
  <path d="M86.8551 101.712C84.6365 105.04 81.0525 108.155 76.1031 111.056C71.2391 113.957 65.7778 115.408 59.7191 115.408C53.9165 115.408 49.0951 114.128 45.2551 111.568C41.4151 108.923 38.5991 105.509 36.8071 101.328C35.0151 97.0614 34.1191 92.496 34.1191 87.632C34.1191 79.3547 35.7831 71.6747 39.1111 64.592C42.4391 57.424 47.0045 51.7494 52.8071 47.568C58.6098 43.3867 65.0098 41.296 72.0071 41.296C78.1511 41.296 82.7591 42.7467 85.8311 45.648C88.9885 48.5494 90.5671 52.3894 90.5671 57.168C90.5671 63.312 88.1778 68.4747 83.3991 72.656C78.6205 76.752 72.9458 79.824 66.3751 81.872C59.8045 83.92 53.8738 84.9867 48.5831 85.072C48.2418 91.1307 49.2231 96.2934 51.5271 100.56C53.9165 104.827 57.6711 106.96 62.7911 106.96C66.6311 106.96 70.3431 106.064 73.9271 104.272C77.5965 102.395 80.9245 99.8774 83.9111 96.72L86.8551 101.712ZM68.9351 48.208C65.0951 48.208 61.6818 49.7867 58.6951 52.944C55.7938 56.1014 53.4898 60.0694 51.7831 64.848C50.0765 69.5414 49.0525 74.192 48.7111 78.8C52.8071 78.6294 57.0738 77.7334 61.5111 76.112C66.0338 74.4054 69.7885 72.016 72.7751 68.944C75.7618 65.7867 77.2551 62.2027 77.2551 58.192C77.2551 54.9494 76.5298 52.4747 75.0791 50.768C73.6285 49.0614 71.5805 48.208 68.9351 48.208ZM58.8231 29.648C57.1165 29.648 55.5805 28.9227 54.2151 27.472C52.8498 25.936 52.1671 24.1867 52.1671 22.224C52.1671 19.5787 52.9778 17.3174 54.5991 15.44C56.2205 13.5627 58.2685 12.624 60.7431 12.624C62.8765 12.624 64.5831 13.3494 65.8631 14.8C67.1431 16.2507 67.7831 18 67.7831 20.048C67.6978 22.7787 66.8445 25.0827 65.2231 26.96C63.6018 28.752 61.4685 29.648 58.8231 29.648ZM85.8311 29.648C84.0391 29.648 82.4605 28.9227 81.0951 27.472C79.8151 25.936 79.1751 24.1867 79.1751 22.224C79.1751 19.5787 79.9431 17.3174 81.4791 15.44C83.1005 13.5627 85.1485 12.624 87.6231 12.624C89.7565 12.624 91.4631 13.3494 92.7431 14.8C94.0231 16.1654 94.6631 17.8294 94.6631 19.792C94.6631 22.608 93.8525 24.9547 92.2311 26.832C90.6098 28.7094 88.4765 29.648 85.8311 29.648Z" fill="black"/>
  <style>
    path { fill: #000; }
    @media (prefers-color-scheme: dark) {
      path { fill: #FFF; }
    }
  </style>
</svg>
